<svg xmlns="http://www.w3.org/2000/svg" viewBox="0 0 800 280" fill="none">
  <defs>
    <linearGradient id="metalDk" x1="0%" y1="0%" x2="100%" y2="100%">
      <stop offset="0%" style="stop-color:#444"/>
      <stop offset="40%" style="stop-color:#222"/>
      <stop offset="60%" style="stop-color:#555"/>
      <stop offset="100%" style="stop-color:#333"/>
    </linearGradient>
  </defs>
  <!-- Light background -->
  <rect width="800" height="280" fill="#FFFFFF" rx="0"/>
  <!-- S icon - scaled down -->
  <g transform="translate(40, 30) scale(0.43)">
    <path d="M320 140 C320 110, 290 85, 256 85 C210 85, 175 115, 175 155 C175 195, 205 215, 256 235 C307 255, 337 275, 337 315 C337 355, 302 385, 256 385 C222 385, 192 360, 192 330"
          stroke="url(#metalDk)" stroke-width="36" stroke-linecap="round" fill="none"/>
    <line x1="310" y1="130" x2="380" y2="100" stroke="url(#metalDk)" stroke-width="2.5" stroke-linecap="round"/>
    <circle cx="380" cy="100" r="5" fill="#333"/>
    <line x1="320" y1="115" x2="400" y2="80" stroke="url(#metalDk)" stroke-width="2" stroke-linecap="round"/>
    <circle cx="400" cy="80" r="4" fill="#444"/>
    <line x1="330" y1="145" x2="395" y2="130" stroke="url(#metalDk)" stroke-width="2" stroke-linecap="round"/>
    <circle cx="395" cy="130" r="4" fill="#444"/>
    <line x1="202" y1="340" x2="132" y2="370" stroke="url(#metalDk)" stroke-width="2.5" stroke-linecap="round"/>
    <circle cx="132" cy="370" r="5" fill="#333"/>
    <line x1="192" y1="355" x2="112" y2="390" stroke="url(#metalDk)" stroke-width="2" stroke-linecap="round"/>
    <circle cx="112" cy="390" r="4" fill="#444"/>
    <line x1="182" y1="325" x2="117" y2="340" stroke="url(#metalDk)" stroke-width="2" stroke-linecap="round"/>
    <circle cx="117" cy="340" r="4" fill="#444"/>
    <circle cx="256" cy="235" r="4" fill="#333"/>
  </g>
  <!-- Wordmark -->
  <text x="260" y="155" font-family="Inter, -apple-system, Helvetica, Arial, sans-serif" font-size="52" font-weight="800" letter-spacing="-1" fill="#111111">Saleverse</text>
  <text x="655" y="155" font-family="Inter, -apple-system, Helvetica, Arial, sans-serif" font-size="52" font-weight="800" letter-spacing="-1" fill="#AAAAAA">HQ</text>
  <!-- Tagline -->
  <text x="262" y="190" font-family="Inter, -apple-system, Helvetica, Arial, sans-serif" font-size="14" font-weight="500" letter-spacing="3" fill="#999999">THE UNGLAMOROUS TRUTH ABOUT B2B SALES</text>
</svg>
